<svg width="140" height="48" viewBox="0 0 140 48" fill="none" xmlns="http://www.w3.org/2000/svg">
<path d="M103 1H1V47H103L139 26.3L103 1Z" stroke="black"/>
<path d="M35.0075 31.0703V33H22.9088V31.3115L28.9645 24.5703C29.7093 23.7409 30.2848 23.0384 30.6911 22.4629C31.1058 21.8789 31.3935 21.3584 31.5543 20.9014C31.7236 20.4359 31.8082 19.9619 31.8082 19.4795C31.8082 18.8701 31.6813 18.32 31.4274 17.8291C31.1819 17.3298 30.818 16.932 30.3356 16.6357C29.8532 16.3395 29.2692 16.1914 28.5836 16.1914C27.7627 16.1914 27.0771 16.3522 26.527 16.6738C25.9853 16.987 25.5791 17.4271 25.3082 17.9941C25.0374 18.5612 24.902 19.2129 24.902 19.9492H22.5534C22.5534 18.9082 22.7819 17.9561 23.2389 17.0928C23.6959 16.2295 24.373 15.5439 25.2702 15.0361C26.1673 14.5199 27.2718 14.2617 28.5836 14.2617C29.7516 14.2617 30.7503 14.4691 31.5797 14.8838C32.4092 15.29 33.0439 15.8656 33.484 16.6104C33.9326 17.3467 34.1569 18.21 34.1569 19.2002C34.1569 19.7419 34.0638 20.292 33.8776 20.8506C33.6998 21.4007 33.4502 21.9508 33.1286 22.501C32.8154 23.0511 32.4472 23.5928 32.0241 24.126C31.6093 24.6592 31.165 25.1839 30.6911 25.7002L25.7399 31.0703H35.0075ZM49.3847 22.2852V25.1035C49.3847 26.6185 49.2492 27.8965 48.9784 28.9375C48.7076 29.9785 48.3182 30.8164 47.8104 31.4512C47.3026 32.0859 46.689 32.5472 45.9696 32.835C45.2587 33.1143 44.4546 33.2539 43.5575 33.2539C42.8466 33.2539 42.1906 33.165 41.5897 32.9873C40.9888 32.8096 40.4472 32.526 39.9647 32.1367C39.4908 31.7389 39.0845 31.2227 38.746 30.5879C38.4074 29.9531 38.1493 29.1829 37.9716 28.2773C37.7938 27.3717 37.705 26.3138 37.705 25.1035V22.2852C37.705 20.7702 37.8404 19.5007 38.1112 18.4766C38.3905 17.4525 38.7841 16.6315 39.2919 16.0137C39.7997 15.3874 40.4091 14.9388 41.12 14.668C41.8394 14.3971 42.6434 14.2617 43.5321 14.2617C44.2515 14.2617 44.9117 14.3506 45.5126 14.5283C46.122 14.6976 46.6636 14.9727 47.1376 15.3535C47.6115 15.7259 48.0136 16.2253 48.3436 16.8516C48.6822 17.4694 48.9403 18.2269 49.118 19.124C49.2958 20.0212 49.3847 21.0749 49.3847 22.2852ZM47.0233 25.4844V21.8916C47.0233 21.0622 46.9725 20.3343 46.871 19.708C46.7779 19.0732 46.6382 18.5316 46.452 18.083C46.2658 17.6344 46.0289 17.2705 45.7411 16.9912C45.4618 16.7119 45.136 16.5088 44.7636 16.3818C44.3996 16.2464 43.9891 16.1787 43.5321 16.1787C42.9735 16.1787 42.4784 16.2845 42.0468 16.4961C41.6151 16.6992 41.2512 17.0251 40.955 17.4736C40.6672 17.9222 40.4472 18.5104 40.2948 19.2383C40.1425 19.9661 40.0663 20.8506 40.0663 21.8916V25.4844C40.0663 26.3138 40.1128 27.0459 40.2059 27.6807C40.3075 28.3154 40.4556 28.8656 40.6503 29.3311C40.8449 29.7881 41.0819 30.1647 41.3612 30.4609C41.6405 30.7572 41.9621 30.9772 42.3261 31.1211C42.6985 31.2565 43.1089 31.3242 43.5575 31.3242C44.133 31.3242 44.6366 31.2142 45.0682 30.9941C45.4999 30.7741 45.8596 30.4313 46.1473 29.9658C46.4436 29.4919 46.6636 28.8867 46.8075 28.1504C46.9514 27.4056 47.0233 26.5169 47.0233 25.4844ZM64.7775 31.0703V33H52.6788V31.3115L58.7345 24.5703C59.4793 23.7409 60.0548 23.0384 60.4611 22.4629C60.8758 21.8789 61.1635 21.3584 61.3243 20.9014C61.4936 20.4359 61.5782 19.9619 61.5782 19.4795C61.5782 18.8701 61.4513 18.32 61.1974 17.8291C60.9519 17.3298 60.588 16.932 60.1056 16.6357C59.6232 16.3395 59.0392 16.1914 58.3536 16.1914C57.5327 16.1914 56.8471 16.3522 56.297 16.6738C55.7553 16.987 55.3491 17.4271 55.0782 17.9941C54.8074 18.5612 54.672 19.2129 54.672 19.9492H52.3234C52.3234 18.9082 52.5519 17.9561 53.0089 17.0928C53.4659 16.2295 54.143 15.5439 55.0402 15.0361C55.9373 14.5199 57.0418 14.2617 58.3536 14.2617C59.5216 14.2617 60.5203 14.4691 61.3497 14.8838C62.1792 15.29 62.8139 15.8656 63.254 16.6104C63.7026 17.3467 63.9269 18.21 63.9269 19.2002C63.9269 19.7419 63.8338 20.292 63.6476 20.8506C63.4698 21.4007 63.2202 21.9508 62.8986 22.501C62.5854 23.0511 62.2172 23.5928 61.7941 24.126C61.3794 24.6592 60.935 25.1839 60.4611 25.7002L55.5099 31.0703H64.7775ZM80.0433 26.7793V28.709H66.6879V27.3252L74.9652 14.5156H76.8822L74.8255 18.2227L69.3539 26.7793H80.0433ZM77.4662 14.5156V33H75.1175V14.5156H77.4662Z" fill="white"/>
</svg>
